<svg width="29" height="75" viewBox="0 0 29 75" fill="none" xmlns="http://www.w3.org/2000/svg">
<path d="M69.1755 2.42041C69.1755 1.61362 69.1495 0.806834 69.0975 4.57823e-05L0.0780106 5.09931e-05C0.0259629 0.80684 -6.09133e-05 1.61363 -6.08524e-05 2.42041C-5.94102e-05 21.5231 15.4851 37.0342 34.6138 37.0342C53.6904 37.0342 69.1755 21.5491 69.1755 2.42041Z" fill="#9EC9D3"/>
<path d="M69.1755 71.6481C69.1755 72.4549 69.1495 73.2617 69.0975 74.0685L0.0780106 74.0684C0.0259629 73.2617 -6.08749e-05 72.4549 -6.07947e-05 71.6481C-5.88969e-05 52.5454 15.4851 37.0343 34.6138 37.0343C53.6904 37.0343 69.1755 52.5194 69.1755 71.6481Z" fill="#02B3BD"/>
</svg>
