<svg width="190" height="176" viewBox="0 0 190 176" fill="none" xmlns="http://www.w3.org/2000/svg">
<g clip-path="url(#clip0_278_9666)">
<path opacity="0.8" d="M114.067 117.513C88.4489 117.513 70.7344 137.926 70.7344 162.552V163.201C70.7344 187.827 88.7735 208.565 114.392 208.565C140.01 208.565 157.725 188.152 157.725 163.526V162.877C157.725 138.251 139.685 117.513 114.067 117.513ZM189.497 162.877C189.497 203.562 157.923 236.5 114.067 236.5C70.2096 236.5 38.9609 203.885 38.9609 163.526V163.201C38.961 156.421 39.9278 149.642 41.8604 143.188L42.0527 142.545H-17.5V0.5H37.8125C82.3369 0.500166 112.918 31.1818 112.918 70.8721V71.1973C112.918 77.3241 111.952 83.4614 110.66 88.9639L110.516 89.5781H114.392C158.253 89.5781 189.82 122.196 189.498 162.548H189.497V162.877ZM12.9756 114.762H13.4756V114.937H37.8125C50.9048 114.936 61.827 110.589 69.4775 103.007C77.1284 95.4239 81.4688 84.6426 81.4688 71.8477V71.5225C81.4687 58.7258 77.0458 47.7851 69.3584 40.042C61.6705 32.2984 50.7493 27.7843 37.8125 27.7842H12.9756V114.762Z" stroke="#02B3BD"/>
</g>
<defs>
<clipPath id="clip0_278_9666">
<rect width="208" height="176" fill="white" transform="translate(-18)"/>
</clipPath>
</defs>
</svg>
