<svg width="375" height="169" viewBox="0 0 375 169" fill="none" xmlns="http://www.w3.org/2000/svg">
<g clip-path="url(#clip0_559_8586)">
<rect width="375" height="169" rx="16" fill="#A1FFFD"/>
<g opacity="0.5" clip-path="url(#clip1_559_8586)">
<g opacity="0.46" clip-path="url(#clip2_559_8586)">
<path opacity="0.5" d="M35.5674 -3.57422C73.5144 -3.57412 99.578 22.5753 99.5781 56.4023V56.6797C99.5781 61.9014 98.7547 67.1317 97.6533 71.8213L97.5303 72.3447H100.834C138.216 72.3449 165.119 100.145 164.845 134.535V134.815C164.845 169.49 137.935 197.562 100.558 197.562C63.1788 197.562 36.5469 169.765 36.5469 135.369V135.093C36.5469 129.314 37.3705 123.537 39.0176 118.036L39.1816 117.487H-11.5742V-3.57422H35.5674ZM100.558 96.1523C78.7238 96.1523 63.626 113.55 63.626 134.538V135.093C63.6262 156.081 79.0005 173.755 100.834 173.755C122.668 173.755 137.765 156.357 137.765 135.369V134.815C137.765 113.828 122.391 96.1526 100.558 96.1523ZM14.3994 93.8076H14.8252V93.957H35.5674C46.7257 93.957 56.0343 90.2515 62.5547 83.7891C69.0751 77.3264 72.7744 68.138 72.7744 57.2334V56.957C72.7744 46.0508 69.0048 36.7263 62.4531 30.127C55.9009 23.5273 46.5931 19.6797 35.5674 19.6797H14.3994V93.8076Z" stroke="#16AAA9" stroke-width="0.852273"/>
</g>
</g>
<mask id="mask0_559_8586" style="mask-type:alpha" maskUnits="userSpaceOnUse" x="0" y="0" width="375" height="169">
<rect width="375" height="169" rx="16" fill="#A1FFFD"/>
</mask>
<g mask="url(#mask0_559_8586)">
<path d="M422.043 1.09767C422.043 -0.601554 421.989 -2.30077 421.879 -4L276.513 -3.99999C276.403 -2.30076 276.349 -0.601543 276.349 1.09768C276.349 41.331 308.963 74 349.251 74C389.429 74 422.043 41.3858 422.043 1.09767Z" fill="#9EC9D3"/>
<path d="M422.043 146.902C422.043 148.602 421.989 150.301 421.879 152L276.513 152C276.403 150.301 276.349 148.602 276.349 146.902C276.349 106.669 308.963 74 349.251 74C389.429 74 422.043 106.614 422.043 146.902Z" fill="#02B3BD"/>
</g>
</g>
<defs>
<clipPath id="clip0_559_8586">
<rect width="375" height="169" fill="white"/>
</clipPath>
<clipPath id="clip1_559_8586">
<rect width="177" height="117" fill="white" transform="translate(-12)"/>
</clipPath>
<clipPath id="clip2_559_8586">
<rect width="177.273" height="150" fill="white" transform="translate(-12 -4)"/>
</clipPath>
</defs>
</svg>
