<svg width="375" height="192" viewBox="0 0 375 192" fill="none" xmlns="http://www.w3.org/2000/svg">
<g clip-path="url(#clip0_287_8156)">
<path d="M0 0H375V300H0V0Z" fill="url(#paint0_linear_287_8156)"/>
<mask id="mask0_287_8156" style="mask-type:alpha" maskUnits="userSpaceOnUse" x="1" y="0" width="375" height="300">
<path d="M1 0H376V300H1V0Z" fill="url(#paint1_linear_287_8156)"/>
</mask>
<g mask="url(#mask0_287_8156)">
<path fill-rule="evenodd" clip-rule="evenodd" d="M-38.4028 132.365L445.491 -336.224L260.808 -528L-223.086 -59.4112L-38.4028 132.365Z" fill="url(#paint2_linear_287_8156)"/>
<path fill-rule="evenodd" clip-rule="evenodd" d="M87.9229 609.486L563.565 132.524L375.563 -56L-100.079 420.962L87.9229 609.486Z" fill="url(#paint3_linear_287_8156)"/>
<path opacity="0.1" fill-rule="evenodd" clip-rule="evenodd" d="M-253.623 295.915L44.7903 -2.49811L-253.623 295.915Z" fill="url(#paint4_linear_287_8156)"/>
<path opacity="0.1" fill-rule="evenodd" clip-rule="evenodd" d="M242.377 101.915L540.79 -196.498L242.377 101.915Z" fill="url(#paint5_linear_287_8156)"/>
<path d="M377.924 103.255L466.647 103.255L352.772 216.392L263 216.392L377.924 103.255Z" fill="url(#paint6_linear_287_8156)"/>
</g>
<path d="M50.2952 80.5402C50.1018 80.5402 49.9085 80.5402 49.6507 80.5402C49.9085 79.452 50.1018 78.2357 50.1018 77.0194V76.9554C50.1018 69.0815 43.9792 63 35.0852 63H24V91.1668H35.0852C35.343 91.1668 35.5364 91.1668 35.7942 91.1668C35.4075 92.4471 35.2141 93.7915 35.2141 95.1358V95.1998C35.2141 103.202 41.4657 109.667 50.2307 109.667C58.9958 109.667 65.3118 103.138 65.3118 95.0718V95.0077C65.3762 87.0058 59.0602 80.5402 50.2952 80.5402ZM30.2516 85.5975V68.5693H35.0852C40.1767 68.5693 43.6569 72.0902 43.6569 77.0834V77.1474C43.6569 82.1406 40.2411 85.5335 35.0852 85.5335H30.2516V85.5975ZM58.8024 95.1998C58.8024 100.001 55.3222 103.97 50.2952 103.97C45.2682 103.97 41.7235 99.9369 41.7235 95.1358V95.0077C41.7235 90.2066 45.2037 86.2376 50.2307 86.2376C55.2578 86.2376 58.8024 90.2706 58.8024 95.0718V95.1998Z" fill="white"/>
<path d="M76.075 96.352V96.9921H74.5282V101.601H73.8192V96.9921H72.2725V96.352H76.075Z" fill="white"/>
<path d="M82.1977 100.961H84.6468V101.601H81.4888V96.3521H84.5823V96.9922H82.1333V98.5926H84.389V99.2328H82.1333V100.961H82.1977Z" fill="white"/>
<path d="M92.6385 101.729C91.8651 101.729 91.1562 101.473 90.6406 100.961C90.125 100.449 89.8672 99.8089 89.8672 99.0407C89.8672 98.2725 90.125 97.6324 90.6406 97.1203C91.1562 96.6081 91.8007 96.3521 92.6385 96.3521C93.1541 96.3521 93.5408 96.4801 93.9919 96.6722C94.3786 96.9282 94.7009 97.1843 94.9587 97.6324L94.3786 98.0165C94.2497 97.6964 93.9919 97.5044 93.7341 97.3123C93.4119 97.1203 93.0896 97.0563 92.7674 97.0563C92.1874 97.0563 91.6718 97.2483 91.2851 97.6324C90.8984 98.0165 90.705 98.5286 90.705 99.1048C90.705 99.6809 90.8984 100.193 91.2851 100.577C91.6718 100.961 92.1874 101.153 92.7674 101.153C93.1541 101.153 93.4763 101.089 93.7341 100.897C94.0564 100.705 94.2497 100.513 94.3786 100.193L94.9587 100.513C94.7653 100.897 94.4431 101.217 93.9919 101.473C93.5408 101.601 93.0896 101.729 92.6385 101.729Z" fill="white"/>
<path d="M103.659 96.3521H104.368V101.601H103.659V99.2328H101.081V101.601H100.372V96.3521H101.081V98.5926H103.659V96.3521Z" fill="white"/>
<path d="M113.455 96.3521H114.164V101.601H113.584L110.877 97.6964V101.601H110.168V96.3521H110.684L113.455 100.321V96.3521Z" fill="white"/>
<path d="M124.347 100.897C123.831 101.409 123.187 101.665 122.413 101.665C121.64 101.665 120.996 101.409 120.48 100.897C119.964 100.385 119.707 99.7449 119.707 98.9767C119.707 98.2085 119.964 97.5684 120.48 97.0562C120.996 96.5441 121.64 96.2881 122.413 96.2881C123.187 96.2881 123.831 96.5441 124.347 97.0562C124.862 97.5684 125.12 98.2085 125.12 98.9767C125.185 99.7449 124.927 100.385 124.347 100.897ZM120.996 100.449C121.382 100.833 121.898 101.025 122.478 101.025C123.058 101.025 123.573 100.833 123.96 100.449C124.347 100.065 124.54 99.5528 124.54 98.9767C124.54 98.4006 124.347 97.8884 123.96 97.5044C123.573 97.1203 123.058 96.9282 122.478 96.9282C121.898 96.9282 121.382 97.1203 120.996 97.5044C120.609 97.8884 120.415 98.4006 120.415 98.9767C120.415 99.5528 120.609 100.065 120.996 100.449Z" fill="white"/>
<path d="M131.436 100.961H133.692V101.601H130.728V96.3521H131.436V100.961Z" fill="white"/>
<path d="M143.102 100.897C142.586 101.409 141.942 101.665 141.168 101.665C140.395 101.665 139.75 101.409 139.235 100.897C138.719 100.385 138.461 99.7449 138.461 98.9767C138.461 98.2085 138.719 97.5684 139.235 97.0562C139.75 96.5441 140.395 96.2881 141.168 96.2881C141.942 96.2881 142.586 96.5441 143.102 97.0562C143.617 97.5684 143.875 98.2085 143.875 98.9767C143.94 99.7449 143.617 100.385 143.102 100.897ZM139.686 100.449C140.073 100.833 140.588 101.025 141.168 101.025C141.748 101.025 142.264 100.833 142.651 100.449C143.037 100.065 143.231 99.5528 143.231 98.9767C143.231 98.4006 143.037 97.8884 142.651 97.5044C142.264 97.1203 141.748 96.9282 141.168 96.9282C140.588 96.9282 140.073 97.1203 139.686 97.5044C139.299 97.8884 139.106 98.4006 139.106 98.9767C139.106 99.5528 139.299 100.065 139.686 100.449Z" fill="white"/>
<path d="M154.574 99.0407V99.3608C154.574 100.065 154.316 100.641 153.865 101.089C153.414 101.537 152.769 101.793 151.996 101.793C151.158 101.793 150.514 101.537 149.998 101.025C149.482 100.513 149.225 99.8729 149.225 99.1047C149.225 98.3366 149.482 97.6964 149.998 97.1843C150.514 96.6722 151.158 96.4161 151.996 96.4161C152.512 96.4161 152.963 96.5441 153.349 96.7362C153.736 96.9922 154.058 97.2483 154.316 97.6324L153.736 98.0165C153.607 97.7604 153.349 97.5044 153.027 97.3123C152.705 97.1203 152.383 97.0562 151.996 97.0562C151.416 97.0562 150.9 97.2483 150.514 97.6324C150.127 98.0165 149.934 98.5286 149.934 99.1047C149.934 99.6809 150.127 100.193 150.514 100.577C150.9 100.961 151.416 101.153 152.06 101.153C152.576 101.153 153.027 101.025 153.349 100.769C153.672 100.513 153.865 100.193 153.929 99.7449H151.996V99.1047H154.574V99.0407Z" fill="white"/>
<path d="M160.052 96.3521H160.761V101.601H160.052V96.3521Z" fill="white"/>
<path d="M167.334 100.961H169.783V101.601H166.625V96.3521H169.719V96.9922H167.27V98.5926H169.526V99.2328H167.27V100.961H167.334Z" fill="white"/>
<path d="M177.002 101.729C176.486 101.729 176.1 101.601 175.713 101.409C175.391 101.153 175.133 100.833 175.004 100.449L175.584 100.129C175.777 100.769 176.293 101.089 177.002 101.089C177.389 101.089 177.646 101.025 177.84 100.897C178.033 100.769 178.097 100.577 178.097 100.321C178.097 100.065 178.033 99.8729 177.84 99.7449C177.646 99.6169 177.324 99.4888 176.873 99.3608C176.68 99.2968 176.486 99.2328 176.357 99.1688C176.228 99.1047 176.1 99.0407 175.906 98.9767C175.713 98.9127 175.584 98.7847 175.519 98.7207C175.455 98.6566 175.326 98.5286 175.262 98.3366C175.197 98.2085 175.133 98.0165 175.133 97.8244C175.133 97.3763 175.262 96.9922 175.648 96.7362C175.971 96.4801 176.357 96.3521 176.808 96.3521C177.195 96.3521 177.582 96.4801 177.904 96.6722C178.226 96.8642 178.42 97.1843 178.613 97.5044L178.033 97.8244C177.775 97.3123 177.389 96.9922 176.808 96.9922C176.551 96.9922 176.293 97.0563 176.1 97.1843C175.906 97.3123 175.842 97.5044 175.842 97.7604C175.842 98.0165 175.906 98.1445 176.1 98.2725C176.293 98.4006 176.551 98.5286 176.937 98.6566C177.066 98.7207 177.195 98.7207 177.26 98.7847C177.324 98.7847 177.389 98.8487 177.517 98.9127C177.646 98.9767 177.711 98.9767 177.775 99.0407C177.84 99.0407 177.904 99.1047 178.033 99.1688C178.162 99.2328 178.226 99.2968 178.291 99.2968C178.355 99.3608 178.42 99.4248 178.484 99.4888C178.549 99.5529 178.613 99.6169 178.613 99.6809C178.613 99.7449 178.677 99.8729 178.677 99.937C178.677 100.065 178.742 100.129 178.742 100.257C178.742 100.705 178.549 101.089 178.226 101.345C177.969 101.601 177.517 101.729 177.002 101.729Z" fill="white"/>
<path d="M70.7256 72.0262H77.6216C83.2287 72.0262 87.0956 75.8031 87.0956 80.7963V80.8603C87.0956 85.8535 83.2287 89.6945 77.6861 89.6945H70.79L70.7256 72.0262ZM77.6216 86.1736C80.8441 86.1736 82.9709 83.9971 82.9709 80.9243V80.8603C82.9709 77.7236 80.7796 75.547 77.6216 75.547H74.5925V86.1736H77.6216Z" fill="white"/>
<path d="M101.79 76.1232H105.85L108.879 85.1494L111.909 76.1232H115.904L110.555 89.7585H107.075L101.79 76.1232Z" fill="white"/>
<path d="M116.871 80.8603C116.871 75.8031 120.867 71.7061 126.345 71.6421C131.823 71.6421 135.755 75.675 135.755 80.7323V80.7963C135.755 85.7895 131.759 89.9505 126.281 89.9505C120.802 89.9505 116.871 85.8535 116.871 80.8603ZM131.63 80.8603C131.63 77.7876 129.374 75.291 126.216 75.291C123.058 75.291 120.867 77.7876 120.867 80.7963V80.8603C120.867 83.869 123.123 86.4296 126.281 86.4296C129.439 86.4296 131.63 83.869 131.63 80.8603Z" fill="white"/>
<path d="M137.817 76.0592H141.684V77.9796C142.587 76.8273 143.682 75.8031 145.68 75.8031C148.58 75.8031 150.32 77.7236 150.32 80.7963V89.5664H146.454V82.0126C146.454 80.2202 145.616 79.2599 144.133 79.2599C142.651 79.2599 141.749 80.2202 141.749 82.0126V89.5664H137.882L137.817 76.0592Z" fill="white"/>
<path d="M151.931 82.9088C151.931 79.0039 154.896 75.8031 159.021 75.8031C161.598 75.8031 163.21 76.6353 164.434 78.0436L162.05 80.5402C161.212 79.644 160.31 79.0679 158.956 79.0679C157.023 79.0679 155.669 80.7323 155.669 82.7808V82.8448C155.669 84.8933 157.023 86.5577 159.149 86.5577C160.438 86.5577 161.341 85.9816 162.243 85.0853L164.499 87.3259C163.21 88.7342 161.663 89.8225 158.956 89.8225C154.96 89.8865 151.931 86.7497 151.931 82.9088Z" fill="white"/>
<path d="M165.53 85.6615C164.112 82.0126 165.466 78.0436 169.204 76.6353C173.457 74.9709 176.68 77.4675 178.098 81.0524C178.227 81.3084 178.291 81.6925 178.42 82.0126L169.59 85.4694C170.557 86.9418 172.04 87.3259 173.651 86.7497C174.875 86.3016 175.584 85.5334 176.229 84.2531L179 85.2774C178.42 87.1978 177.067 88.7342 174.746 89.6304C170.879 91.1028 167.013 89.5024 165.53 85.6615ZM174.037 81.1164C173.2 79.58 171.846 78.8758 170.299 79.516C168.817 80.0921 168.237 81.5005 168.624 83.2289L174.037 81.1164Z" fill="white"/>
<path d="M89.2226 85.6615C87.8047 82.0126 89.1582 78.0436 92.8962 76.6353C97.1498 74.9709 100.372 77.4675 101.79 81.0524C101.919 81.3084 101.984 81.6925 102.112 82.0126L93.2829 85.4694C94.2496 86.9418 95.732 87.3259 97.3432 86.7497C98.5677 86.3016 99.2767 85.5334 99.9211 84.2531L102.692 85.2774C102.112 87.1978 100.759 88.7342 98.4388 89.6304C94.5719 91.1028 90.7049 89.5024 89.2226 85.6615ZM97.7299 81.1164C96.892 79.58 95.5386 78.8758 93.9918 79.516C92.5095 80.0921 91.9295 81.5005 92.3162 83.2289L97.7299 81.1164Z" fill="white"/>
</g>
<defs>
<linearGradient id="paint0_linear_287_8156" x1="369.016" y1="385.5" x2="411.284" y2="50.858" gradientUnits="userSpaceOnUse">
<stop stop-color="#0E667B"/>
<stop offset="1" stop-color="#01B3C1"/>
</linearGradient>
<linearGradient id="paint1_linear_287_8156" x1="370.016" y1="385.5" x2="412.284" y2="50.858" gradientUnits="userSpaceOnUse">
<stop stop-color="#0E667B"/>
<stop offset="1" stop-color="#01B3C1"/>
</linearGradient>
<linearGradient id="paint2_linear_287_8156" x1="200.176" y1="-575.304" x2="423.266" y2="-371.462" gradientUnits="userSpaceOnUse">
<stop stop-color="#0E667B"/>
<stop offset="1" stop-color="#01B3C1"/>
</linearGradient>
<linearGradient id="paint3_linear_287_8156" x1="314.115" y1="-102.238" x2="540.729" y2="97.6785" gradientUnits="userSpaceOnUse">
<stop stop-color="#0E667B"/>
<stop offset="1" stop-color="#01B3C1"/>
</linearGradient>
<linearGradient id="paint4_linear_287_8156" x1="41.2128" y1="-88.5" x2="93.5849" y2="243.212" gradientUnits="userSpaceOnUse">
<stop stop-color="#0E667B"/>
<stop offset="1" stop-color="#01B3C1"/>
</linearGradient>
<linearGradient id="paint5_linear_287_8156" x1="537.213" y1="-282.5" x2="589.585" y2="49.212" gradientUnits="userSpaceOnUse">
<stop stop-color="#0E667B"/>
<stop offset="1" stop-color="#01B3C1"/>
</linearGradient>
<linearGradient id="paint6_linear_287_8156" x1="262.391" y1="306.066" x2="475.889" y2="244.544" gradientUnits="userSpaceOnUse">
<stop stop-color="#0E667B"/>
<stop offset="1" stop-color="#01B3C1"/>
</linearGradient>
<clipPath id="clip0_287_8156">
<rect width="376" height="192" fill="white"/>
</clipPath>
</defs>
</svg>
