<svg width="375" height="169" viewBox="0 0 375 169" fill="none" xmlns="http://www.w3.org/2000/svg">
<g clip-path="url(#clip0_547_8590)">
<rect width="375" height="169" rx="16" fill="#A1FFFD"/>
<g style="mix-blend-mode:multiply">
<path d="M422.043 5.0977C422.043 3.39848 421.989 1.69926 421.879 3.21989e-05L276.513 4.31738e-05C276.403 1.69927 276.349 3.39849 276.349 5.09772C276.349 45.331 308.963 78 349.251 78C389.429 78 422.043 45.3858 422.043 5.0977Z" fill="#9EC9D3"/>
<path d="M422.043 150.902C422.043 152.602 421.989 154.301 421.879 156L276.513 156C276.403 154.301 276.349 152.602 276.349 150.902C276.349 110.669 308.963 78 349.251 78C389.429 78 422.043 110.614 422.043 150.902Z" fill="#02B3BD"/>
</g>
<g opacity="0.5" clip-path="url(#clip1_547_8590)">
<g opacity="0.46" clip-path="url(#clip2_547_8590)">
<path opacity="0.5" d="M35.5674 -3.57422C73.5144 -3.57412 99.578 22.5753 99.5781 56.4023V56.6797C99.5781 61.9014 98.7547 67.1317 97.6533 71.8213L97.5303 72.3447H100.834C138.216 72.3449 165.119 100.145 164.845 134.535V134.815C164.845 169.49 137.935 197.562 100.558 197.562C63.1788 197.562 36.5469 169.765 36.5469 135.369V135.093C36.5469 129.314 37.3705 123.537 39.0176 118.036L39.1816 117.487H-11.5742V-3.57422H35.5674ZM100.558 96.1523C78.7238 96.1523 63.626 113.55 63.626 134.538V135.093C63.6262 156.081 79.0005 173.755 100.834 173.755C122.668 173.755 137.765 156.357 137.765 135.369V134.815C137.765 113.828 122.391 96.1526 100.558 96.1523ZM14.3994 93.8076H14.8252V93.957H35.5674C46.7257 93.957 56.0343 90.2515 62.5547 83.7891C69.0751 77.3264 72.7744 68.138 72.7744 57.2334V56.957C72.7744 46.0508 69.0048 36.7263 62.4531 30.127C55.9009 23.5273 46.5931 19.6797 35.5674 19.6797H14.3994V93.8076Z" stroke="#16AAA9" stroke-width="0.852273"/>
</g>
</g>
</g>
<defs>
<clipPath id="clip0_547_8590">
<rect width="375" height="169" fill="white"/>
</clipPath>
<clipPath id="clip1_547_8590">
<rect width="177" height="117" fill="white" transform="translate(-12)"/>
</clipPath>
<clipPath id="clip2_547_8590">
<rect width="177.273" height="150" fill="white" transform="translate(-12 -4)"/>
</clipPath>
</defs>
</svg>
