<svg width="375" height="192" viewBox="0 0 375 192" fill="none" xmlns="http://www.w3.org/2000/svg">
<g clip-path="url(#clip0_566_8605)">
<path d="M0 0H375V300H0V0Z" fill="url(#paint0_linear_566_8605)"/>
<mask id="mask0_566_8605" style="mask-type:alpha" maskUnits="userSpaceOnUse" x="1" y="0" width="375" height="300">
<path d="M1 0H376V300H1V0Z" fill="url(#paint1_linear_566_8605)"/>
</mask>
<g mask="url(#mask0_566_8605)">
<path fill-rule="evenodd" clip-rule="evenodd" d="M-38.3008 132.365L444.306 -336.224L260.114 -528L-222.493 -59.4112L-38.3008 132.365Z" fill="url(#paint2_linear_566_8605)"/>
<path fill-rule="evenodd" clip-rule="evenodd" d="M87.689 609.486L562.066 132.524L374.564 -56L-99.8128 420.962L87.689 609.486Z" fill="url(#paint3_linear_566_8605)"/>
<path opacity="0.1" fill-rule="evenodd" clip-rule="evenodd" d="M-252.948 295.915L44.6714 -2.49812Z" fill="url(#paint4_linear_566_8605)"/>
<path opacity="0.1" fill-rule="evenodd" clip-rule="evenodd" d="M241.732 101.915L539.352 -196.498Z" fill="url(#paint5_linear_566_8605)"/>
<path d="M377.924 103.255L466.647 103.255L352.772 216.392L263 216.392L377.924 103.255Z" fill="url(#paint6_linear_566_8605)"/>
</g>
<path d="M50.1613 80.5402C49.9684 80.5402 49.7756 80.5402 49.5185 80.5402C49.7756 79.452 49.9684 78.2357 49.9684 77.0194V76.9554C49.9684 69.0815 43.8621 63 34.9918 63H23.936V91.1668H34.9918C35.2489 91.1668 35.4417 91.1668 35.6988 91.1668C35.3132 92.4471 35.1203 93.7915 35.1203 95.1358V95.1998C35.1203 103.202 41.3553 109.667 50.097 109.667C58.8388 109.667 65.1379 103.138 65.1379 95.0718V95.0077C65.2022 87.0058 58.903 80.5402 50.1613 80.5402ZM30.171 85.5975V68.5693H34.9918C40.0697 68.5693 43.5407 72.0902 43.5407 77.0834V77.1474C43.5407 82.1406 40.134 85.5335 34.9918 85.5335H30.171V85.5975ZM58.6459 95.1998C58.6459 100.001 55.1749 103.97 50.1613 103.97C45.1476 103.97 41.6124 99.9369 41.6124 95.1358V95.0077C41.6124 90.2066 45.0834 86.2376 50.097 86.2376C55.1107 86.2376 58.6459 90.2706 58.6459 95.0718V95.1998Z" fill="white"/>
<path d="M75.8725 96.352V96.9921H74.3298V101.601H73.6227V96.9921H72.0801V96.352H75.8725Z" fill="white"/>
<path d="M81.979 100.961H84.4216V101.601H81.272V96.3521H84.3573V96.9922H81.9147V98.5926H84.1645V99.2328H81.9147V100.961H81.979Z" fill="white"/>
<path d="M92.3919 101.729C91.6205 101.729 90.9135 101.473 90.3993 100.961C89.885 100.449 89.6279 99.8089 89.6279 99.0407C89.6279 98.2725 89.885 97.6324 90.3993 97.1203C90.9135 96.6081 91.5563 96.3521 92.3919 96.3521C92.9061 96.3521 93.2918 96.4801 93.7417 96.6722C94.1274 96.9282 94.4488 97.1843 94.7059 97.6324L94.1274 98.0165C93.9988 97.6964 93.7417 97.5044 93.4846 97.3123C93.1632 97.1203 92.8418 97.0563 92.5204 97.0563C91.9419 97.0563 91.4277 97.2483 91.042 97.6324C90.6564 98.0165 90.4635 98.5286 90.4635 99.1048C90.4635 99.6809 90.6564 100.193 91.042 100.577C91.4277 100.961 91.9419 101.153 92.5204 101.153C92.9061 101.153 93.2275 101.089 93.4846 100.897C93.806 100.705 93.9988 100.513 94.1274 100.193L94.7059 100.513C94.513 100.897 94.1916 101.217 93.7417 101.473C93.2918 101.601 92.8418 101.729 92.3919 101.729Z" fill="white"/>
<path d="M103.383 96.3521H104.09V101.601H103.383V99.2328H100.812V101.601H100.105V96.3521H100.812V98.5926H103.383V96.3521Z" fill="white"/>
<path d="M113.154 96.3521H113.861V101.601H113.282L110.583 97.6964V101.601H109.875V96.3521H110.39L113.154 100.321V96.3521Z" fill="white"/>
<path d="M124.016 100.897C123.502 101.409 122.859 101.665 122.088 101.665C121.317 101.665 120.674 101.409 120.16 100.897C119.645 100.385 119.388 99.7449 119.388 98.9767C119.388 98.2085 119.645 97.5684 120.16 97.0562C120.674 96.5441 121.317 96.2881 122.088 96.2881C122.859 96.2881 123.502 96.5441 124.016 97.0562C124.53 97.5684 124.787 98.2085 124.787 98.9767C124.852 99.7449 124.595 100.385 124.016 100.897ZM120.674 100.449C121.059 100.833 121.574 101.025 122.152 101.025C122.731 101.025 123.245 100.833 123.631 100.449C124.016 100.065 124.209 99.5528 124.209 98.9767C124.209 98.4006 124.016 97.8884 123.631 97.5044C123.245 97.1203 122.731 96.9282 122.152 96.9282C121.574 96.9282 121.059 97.1203 120.674 97.5044C120.288 97.8884 120.095 98.4006 120.095 98.9767C120.095 99.5528 120.288 100.065 120.674 100.449Z" fill="white"/>
<path d="M131.087 100.961H133.337V101.601H130.38V96.3521H131.087V100.961Z" fill="white"/>
<path d="M142.721 100.897C142.207 101.409 141.564 101.665 140.793 101.665C140.022 101.665 139.379 101.409 138.865 100.897C138.35 100.385 138.093 99.7449 138.093 98.9767C138.093 98.2085 138.35 97.5684 138.865 97.0562C139.379 96.5441 140.022 96.2881 140.793 96.2881C141.564 96.2881 142.207 96.5441 142.721 97.0562C143.235 97.5684 143.493 98.2085 143.493 98.9767C143.557 99.7449 143.235 100.385 142.721 100.897ZM139.315 100.449C139.7 100.833 140.214 101.025 140.793 101.025C141.371 101.025 141.886 100.833 142.271 100.449C142.657 100.065 142.85 99.5528 142.85 98.9767C142.85 98.4006 142.657 97.8884 142.271 97.5044C141.886 97.1203 141.371 96.9282 140.793 96.9282C140.214 96.9282 139.7 97.1203 139.315 97.5044C138.929 97.8884 138.736 98.4006 138.736 98.9767C138.736 99.5528 138.929 100.065 139.315 100.449Z" fill="white"/>
<path d="M154.163 99.0407V99.3608C154.163 100.065 153.906 100.641 153.456 101.089C153.006 101.537 152.363 101.793 151.592 101.793C150.756 101.793 150.113 101.537 149.599 101.025C149.085 100.513 148.828 99.8729 148.828 99.1047C148.828 98.3366 149.085 97.6964 149.599 97.1843C150.113 96.6722 150.756 96.4161 151.592 96.4161C152.106 96.4161 152.556 96.5441 152.941 96.7362C153.327 96.9922 153.648 97.2483 153.906 97.6324L153.327 98.0165C153.199 97.7604 152.941 97.5044 152.62 97.3123C152.299 97.1203 151.977 97.0562 151.592 97.0562C151.013 97.0562 150.499 97.2483 150.113 97.6324C149.728 98.0165 149.535 98.5286 149.535 99.1047C149.535 99.6809 149.728 100.193 150.113 100.577C150.499 100.961 151.013 101.153 151.656 101.153C152.17 101.153 152.62 101.025 152.941 100.769C153.263 100.513 153.456 100.193 153.52 99.7449H151.592V99.1047H154.163V99.0407Z" fill="white"/>
<path d="M159.626 96.3521H160.333V101.601H159.626V96.3521Z" fill="white"/>
<path d="M166.889 100.961H169.332V101.601H166.182V96.3521H169.267V96.9922H166.825V98.5926H169.075V99.2328H166.825V100.961H166.889Z" fill="white"/>
<path d="M176.531 101.729C176.016 101.729 175.631 101.601 175.245 101.409C174.924 101.153 174.667 100.833 174.538 100.449L175.117 100.129C175.309 100.769 175.824 101.089 176.531 101.089C176.916 101.089 177.173 101.025 177.366 100.897C177.559 100.769 177.623 100.577 177.623 100.321C177.623 100.065 177.559 99.8729 177.366 99.7449C177.173 99.6169 176.852 99.4888 176.402 99.3608C176.209 99.2968 176.016 99.2328 175.888 99.1688C175.759 99.1047 175.631 99.0407 175.438 98.9767C175.245 98.9127 175.117 98.7847 175.052 98.7207C174.988 98.6566 174.859 98.5286 174.795 98.3366C174.731 98.2085 174.667 98.0165 174.667 97.8244C174.667 97.3763 174.795 96.9922 175.181 96.7362C175.502 96.4801 175.888 96.3521 176.338 96.3521C176.724 96.3521 177.109 96.4801 177.431 96.6722C177.752 96.8642 177.945 97.1843 178.138 97.5044L177.559 97.8244C177.302 97.3123 176.916 96.9922 176.338 96.9922C176.081 96.9922 175.824 97.0563 175.631 97.1843C175.438 97.3123 175.374 97.5044 175.374 97.7604C175.374 98.0165 175.438 98.1445 175.631 98.2725C175.824 98.4006 176.081 98.5286 176.466 98.6566C176.595 98.7207 176.724 98.7207 176.788 98.7847C176.852 98.7847 176.916 98.8487 177.045 98.9127C177.173 98.9767 177.238 98.9767 177.302 99.0407C177.366 99.0407 177.431 99.1047 177.559 99.1688C177.688 99.2328 177.752 99.2968 177.816 99.2968C177.881 99.3608 177.945 99.4248 178.009 99.4888C178.073 99.5529 178.138 99.6169 178.138 99.6809C178.138 99.7449 178.202 99.8729 178.202 99.937C178.202 100.065 178.266 100.129 178.266 100.257C178.266 100.705 178.073 101.089 177.752 101.345C177.495 101.601 177.045 101.729 176.531 101.729Z" fill="white"/>
<path d="M70.5376 72.0262H77.4153C83.0074 72.0262 86.8641 75.8031 86.8641 80.7963V80.8603C86.8641 85.8535 83.0074 89.6945 77.4796 89.6945H70.6019L70.5376 72.0262ZM77.4153 86.1736C80.6292 86.1736 82.7503 83.9971 82.7503 80.9243V80.8603C82.7503 77.7236 80.5649 75.547 77.4153 75.547H74.3943V86.1736H77.4153Z" fill="white"/>
<path d="M101.52 76.1232H105.569L108.59 85.1494L111.611 76.1232H115.596L110.261 89.7585H106.79L101.52 76.1232Z" fill="white"/>
<path d="M116.561 80.8603C116.561 75.8031 120.546 71.7061 126.009 71.6421C131.473 71.6421 135.394 75.675 135.394 80.7323V80.7963C135.394 85.7895 131.409 89.9505 125.945 89.9505C120.481 89.9505 116.561 85.8535 116.561 80.8603ZM131.28 80.8603C131.28 77.7876 129.03 75.291 125.881 75.291C122.731 75.291 120.546 77.7876 120.546 80.7963V80.8603C120.546 83.869 122.795 86.4296 125.945 86.4296C129.095 86.4296 131.28 83.869 131.28 80.8603Z" fill="white"/>
<path d="M137.451 76.0592H141.307V77.9796C142.207 76.8273 143.3 75.8031 145.293 75.8031C148.185 75.8031 149.921 77.7236 149.921 80.7963V89.5664H146.064V82.0126C146.064 80.2202 145.228 79.2599 143.75 79.2599C142.271 79.2599 141.372 80.2202 141.372 82.0126V89.5664H137.515L137.451 76.0592Z" fill="white"/>
<path d="M151.527 82.9088C151.527 79.0039 154.484 75.8031 158.598 75.8031C161.169 75.8031 162.776 76.6353 163.997 78.0436L161.619 80.5402C160.783 79.644 159.883 79.0679 158.534 79.0679C156.605 79.0679 155.255 80.7323 155.255 82.7808V82.8448C155.255 84.8933 156.605 86.5577 158.726 86.5577C160.012 86.5577 160.912 85.9816 161.812 85.0853L164.061 87.3259C162.776 88.7342 161.233 89.8225 158.534 89.8225C154.548 89.8865 151.527 86.7497 151.527 82.9088Z" fill="white"/>
<path d="M165.09 85.6615C163.676 82.0126 165.026 78.0436 168.754 76.6353C172.996 74.9709 176.21 77.4675 177.624 81.0524C177.752 81.3084 177.817 81.6925 177.945 82.0126L169.139 85.4694C170.103 86.9418 171.582 87.3259 173.189 86.7497C174.41 86.3016 175.117 85.5334 175.76 84.2531L178.524 85.2774C177.945 87.1978 176.595 88.7342 174.281 89.6304C170.425 91.1028 166.568 89.5024 165.09 85.6615ZM173.574 81.1164C172.739 79.58 171.389 78.8758 169.846 79.516C168.368 80.0921 167.789 81.5005 168.175 83.2289L173.574 81.1164Z" fill="white"/>
<path d="M88.9858 85.6615C87.5717 82.0126 88.9215 78.0436 92.6496 76.6353C96.8919 74.9709 100.106 77.4675 101.52 81.0524C101.648 81.3084 101.713 81.6925 101.841 82.0126L93.0353 85.4694C93.9994 86.9418 95.4778 87.3259 97.0848 86.7497C98.306 86.3016 99.0131 85.5334 99.6559 84.2531L102.42 85.2774C101.841 87.1978 100.491 88.7342 98.1775 89.6304C94.3208 91.1028 90.4642 89.5024 88.9858 85.6615ZM97.4704 81.1164C96.6348 79.58 95.285 78.8758 93.7423 79.516C92.2639 80.0921 91.6854 81.5005 92.0711 83.2289L97.4704 81.1164Z" fill="white"/>
</g>
<g clip-path="url(#clip1_566_8605)">
<g clip-path="url(#clip2_566_8605)">
<g style="mix-blend-mode:screen">
<rect width="56" height="564.297" transform="matrix(-0.653152 -0.757227 -0.757227 0.653152 350.682 -155.42)" fill="url(#paint7_linear_566_8605)"/>
</g>
<g style="mix-blend-mode:screen">
<rect width="56" height="564.297" transform="matrix(-0.653152 -0.757227 -0.757227 0.653152 363.172 -134.684)" fill="url(#paint8_linear_566_8605)"/>
</g>
</g>
</g>
<defs>
<linearGradient id="paint0_linear_566_8605" x1="369.016" y1="385.5" x2="411.284" y2="50.858" gradientUnits="userSpaceOnUse">
<stop stop-color="#0E667B"/>
<stop offset="1" stop-color="#01B3C1"/>
</linearGradient>
<linearGradient id="paint1_linear_566_8605" x1="370.016" y1="385.5" x2="412.284" y2="50.858" gradientUnits="userSpaceOnUse">
<stop stop-color="#0E667B"/>
<stop offset="1" stop-color="#01B3C1"/>
</linearGradient>
<linearGradient id="paint2_linear_566_8605" x1="199.644" y1="-575.304" x2="422.68" y2="-372.054" gradientUnits="userSpaceOnUse">
<stop stop-color="#0E667B"/>
<stop offset="1" stop-color="#01B3C1"/>
</linearGradient>
<linearGradient id="paint3_linear_566_8605" x1="313.28" y1="-102.238" x2="539.817" y2="97.08" gradientUnits="userSpaceOnUse">
<stop stop-color="#0E667B"/>
<stop offset="1" stop-color="#01B3C1"/>
</linearGradient>
<linearGradient id="paint4_linear_566_8605" x1="41.1034" y1="-88.5" x2="93.6084" y2="243.169" gradientUnits="userSpaceOnUse">
<stop stop-color="#0E667B"/>
<stop offset="1" stop-color="#01B3C1"/>
</linearGradient>
<linearGradient id="paint5_linear_566_8605" x1="535.784" y1="-282.5" x2="588.289" y2="49.1689" gradientUnits="userSpaceOnUse">
<stop stop-color="#0E667B"/>
<stop offset="1" stop-color="#01B3C1"/>
</linearGradient>
<linearGradient id="paint6_linear_566_8605" x1="262.391" y1="306.066" x2="475.889" y2="244.544" gradientUnits="userSpaceOnUse">
<stop stop-color="#0E667B"/>
<stop offset="1" stop-color="#01B3C1"/>
</linearGradient>
<linearGradient id="paint7_linear_566_8605" x1="22.44" y1="259.066" x2="-38.062" y2="241.427" gradientUnits="userSpaceOnUse">
<stop stop-color="#0E667B" stop-opacity="0"/>
<stop offset="1" stop-color="#01B3C1" stop-opacity="0.52"/>
</linearGradient>
<linearGradient id="paint8_linear_566_8605" x1="22.44" y1="259.066" x2="-38.062" y2="241.427" gradientUnits="userSpaceOnUse">
<stop stop-color="#0E667B" stop-opacity="0"/>
<stop offset="1" stop-color="#01B3C1" stop-opacity="0.52"/>
</linearGradient>
<clipPath id="clip0_566_8605">
<rect width="375" height="192" fill="white"/>
</clipPath>
<clipPath id="clip1_566_8605">
<rect width="248.338" height="182" fill="white" transform="translate(5.98389)"/>
</clipPath>
<clipPath id="clip2_566_8605">
<rect width="222" height="226" fill="white" transform="matrix(-0.992053 -0.125824 -0.125824 0.992053 254.656 -42.0671)"/>
</clipPath>
</defs>
</svg>
