<svg width="166" height="217" viewBox="0 0 166 217" fill="none" xmlns="http://www.w3.org/2000/svg">
<path opacity="0.49" d="M50.4453 0.25C90.7918 0.25 118.532 28.0361 118.532 63.9941V64.2881C118.532 69.8404 117.656 75.3978 116.485 80.376L116.413 80.6836H119.661C159.414 80.6836 188.04 110.224 187.748 146.774V147.07C187.748 183.919 159.118 213.75 119.368 213.75C79.6172 213.75 51.2823 184.211 51.2822 147.657V147.363C51.2822 141.222 52.1587 135.082 53.9111 129.235L54.0078 128.913H0.25V0.25H50.4453ZM119.368 106.31C96.3379 106.31 80.4043 124.638 80.4043 146.776V147.363C80.4043 169.501 96.6311 188.124 119.661 188.124C142.691 188.124 158.626 169.795 158.626 147.657V147.07C158.626 124.932 142.398 106.31 119.368 106.31ZM28.1992 103.624H28.6992V103.581H50.4453C62.2332 103.581 72.0518 99.6714 78.9238 92.8672C85.7961 86.0627 89.7031 76.3816 89.7031 64.875V64.582C89.7031 53.0746 85.7222 43.248 78.8154 36.2979C71.9083 29.3475 62.09 25.2891 50.4453 25.2891H28.1992V103.624Z" stroke="url(#paint0_linear_705_1370)" stroke-width="0.5"/>
<g filter="url(#filter0_f_705_1370)">
<circle cx="120" cy="147" r="55" stroke="#01E3D8" stroke-width="2"/>
</g>
<g opacity="0.49" filter="url(#filter1_f_705_1370)">
<path d="M47.0918 7C63.5145 7.0001 77.2131 12.7176 86.8027 22.374C96.3942 32.0324 102 45.7572 102 62V62.4287C102 78.6792 96.4969 92.1802 86.9746 101.615C77.4513 111.051 63.7552 116.571 47.0918 116.571H17V7H47.0918Z" stroke="#01E3D8" stroke-width="4"/>
</g>
<defs>
<filter id="filter0_f_705_1370" x="50.7" y="77.7" width="138.6" height="138.6" filterUnits="userSpaceOnUse" color-interpolation-filters="sRGB">
<feFlood flood-opacity="0" result="BackgroundImageFix"/>
<feBlend mode="normal" in="SourceGraphic" in2="BackgroundImageFix" result="shape"/>
<feGaussianBlur stdDeviation="6.65" result="effect1_foregroundBlur_705_1370"/>
</filter>
<filter id="filter1_f_705_1370" x="1.1" y="-8.9" width="116.8" height="141.8" filterUnits="userSpaceOnUse" color-interpolation-filters="sRGB">
<feFlood flood-opacity="0" result="BackgroundImageFix"/>
<feBlend mode="normal" in="SourceGraphic" in2="BackgroundImageFix" result="shape"/>
<feGaussianBlur stdDeviation="6.95" result="effect1_foregroundBlur_705_1370"/>
</filter>
<linearGradient id="paint0_linear_705_1370" x1="-47.4519" y1="-2.35851e-06" x2="93.8054" y2="214.128" gradientUnits="userSpaceOnUse">
<stop offset="0.509615" stop-color="#01E3D8" stop-opacity="0.51"/>
<stop offset="1" stop-color="#007670"/>
</linearGradient>
</defs>
</svg>
