<svg width="107" height="78" viewBox="0 0 107 78" fill="none" xmlns="http://www.w3.org/2000/svg">
<circle cx="3.19444" cy="3.19444" r="3.19444" transform="matrix(1 0 0 -1 0 65.3889)" fill="white"/>
<circle cx="9" cy="9" r="9" transform="matrix(1 0 0 -1 89 18)" fill="#02B3BD"/>
<path d="M53.2834 70.4563C51.4909 72.3028 49.437 73.8971 47.1823 75.1923C47.1306 75.2228 47.078 75.2516 47.0252 75.2813L43.375 72.1728C43.4133 72.1385 43.4558 72.1001 43.5015 72.0578C46.2213 69.573 59.7236 52.1995 60.6233 47.9688C60.5612 48.3212 61.4352 62.1434 53.2834 70.4563Z" fill="#F0F0F0"/>
<path d="M47.0276 75.957C46.9589 75.9724 46.889 75.9868 46.819 76L44.0938 73.7307C44.147 73.7133 44.2093 73.6925 44.2804 73.6694C45.4497 73.2799 48.9322 72.104 52.3979 70.7647C56.1219 69.325 59.828 67.6983 60.625 66.6562C60.454 66.8984 55.1873 74.2404 47.0276 75.957Z" fill="#F0F0F0"/>
<path d="M69.9688 23.7386H69.5807V13.1363C69.5807 12.3305 69.4215 11.5325 69.1123 10.788C68.8031 10.0436 68.3498 9.36709 67.7784 8.79729C67.2071 8.22748 66.5287 7.77548 65.7822 7.4671C65.0357 7.15872 64.2355 7 63.4275 7H40.9032C40.0952 7 39.295 7.15872 38.5485 7.46709C37.8019 7.77547 37.1236 8.22747 36.5522 8.79727C35.9809 9.36708 35.5276 10.0435 35.2184 10.788C34.9092 11.5325 34.75 12.3305 34.75 13.1363V71.3012C34.75 72.107 34.9092 72.905 35.2184 73.6495C35.5276 74.3939 35.9809 75.0704 36.5522 75.6402C37.1236 76.21 37.8019 76.662 38.5485 76.9704C39.295 77.2788 40.0952 77.4375 40.9032 77.4375H63.4274C64.2355 77.4375 65.0356 77.2788 65.7822 76.9704C66.5287 76.662 67.207 76.21 67.7784 75.6402C68.3498 75.0704 68.803 74.394 69.1123 73.6495C69.4215 72.905 69.5807 72.107 69.5807 71.3012V31.2855H69.9688V23.7386Z" fill="#3F3D56"/>
<path d="M67.8125 13.6616V70.7759C67.8125 71.3677 67.6944 71.9537 67.4648 72.5004C67.2353 73.0471 66.8988 73.5438 66.4747 73.9622C66.0505 74.3806 65.547 74.7124 64.9929 74.9388C64.4388 75.1651 63.8449 75.2815 63.2452 75.2812H40.7532C40.1536 75.2813 39.5599 75.1648 39.0059 74.9384C38.452 74.712 37.9486 74.3801 37.5247 73.9618C37.1007 73.5434 36.7644 73.0467 36.535 72.5001C36.3055 71.9534 36.1875 71.3675 36.1875 70.7759V13.6616C36.1875 13.07 36.3055 12.4841 36.535 11.9374C36.7644 11.3908 37.1007 10.8941 37.5247 10.4757C37.9486 10.0574 38.452 9.72551 39.0059 9.49911C39.5599 9.27271 40.1536 9.15621 40.7532 9.15625H43.4827C43.3487 9.48135 43.2977 9.83395 43.3342 10.183C43.3708 10.5321 43.4936 10.867 43.6921 11.1583C43.8905 11.4495 44.1584 11.6882 44.4723 11.8533C44.7861 12.0184 45.1363 12.1048 45.4919 12.1051H58.3153C58.6711 12.1054 59.0216 12.0193 59.3357 11.8544C59.6499 11.6894 59.9181 11.4507 60.1167 11.1593C60.3152 10.8679 60.438 10.5328 60.4743 10.1834C60.5106 9.8341 60.4591 9.48133 60.3245 9.15625H63.2452C63.8449 9.15604 64.4388 9.27241 64.9929 9.49873C65.547 9.72505 66.0505 10.0569 66.4747 10.4753C66.8988 10.8937 67.2353 11.3904 67.4648 11.9371C67.6944 12.4838 67.8125 13.0698 67.8125 13.6616Z" fill="white"/>
<path d="M61.523 43.6562H42.477C42.1434 43.6558 41.8236 43.5041 41.5877 43.2344C41.3518 42.9646 41.2191 42.5989 41.2188 42.2175V41.5013C41.2191 41.1198 41.3518 40.7541 41.5877 40.4844C41.8236 40.2147 42.1434 40.0629 42.477 40.0625H61.523C61.8566 40.0629 62.1764 40.2147 62.4123 40.4844C62.6482 40.7541 62.7809 41.1198 62.7812 41.5013V42.2175C62.7809 42.5989 62.6482 42.9646 62.4123 43.2344C62.1764 43.5041 61.8566 43.6558 61.523 43.6562Z" fill="#F0F0F0"/>
<path d="M61.523 48.6875H42.477C42.1434 48.6872 41.8236 48.5658 41.5877 48.35C41.3518 48.1342 41.2191 47.8416 41.2188 47.5365V46.9635C41.2191 46.6584 41.3518 46.3658 41.5877 46.15C41.8236 45.9342 42.1434 45.8128 42.477 45.8125H61.523C61.8566 45.8128 62.1764 45.9342 62.4123 46.15C62.6482 46.3658 62.7809 46.6584 62.7812 46.9635V47.5365C62.7809 47.8416 62.6482 48.1342 62.4123 48.35C62.1764 48.5658 61.8566 48.6872 61.523 48.6875Z" fill="#F0F0F0"/>
<path d="M62.1427 42.2188H42.576C42.2162 42.2183 41.8712 42.0651 41.6167 41.7928C41.3623 41.5205 41.2192 41.1513 41.2188 40.7662V40.0776C41.2192 39.6925 41.3623 39.3233 41.6167 39.0509C41.8712 38.7786 42.2162 38.6254 42.576 38.625H62.1427C62.5026 38.6254 62.8475 38.7786 63.102 39.0509C63.3565 39.3233 63.4996 39.6925 63.5 40.0776V40.7662C63.4996 41.1513 63.3565 41.5205 63.102 41.7928C62.8475 42.0651 62.5026 42.2183 62.1427 42.2188ZM42.576 38.9017C42.2847 38.902 42.0055 39.026 41.7995 39.2465C41.5935 39.4669 41.4776 39.7658 41.4773 40.0776V40.7662C41.4776 41.0779 41.5935 41.3768 41.7995 41.5973C42.0055 41.8177 42.2847 41.9417 42.576 41.9421H62.1427C62.434 41.9417 62.7133 41.8177 62.9193 41.5973C63.1253 41.3768 63.2411 41.0779 63.2415 40.7662V40.0776C63.2411 39.7658 63.1253 39.4669 62.9193 39.2465C62.7133 39.026 62.434 38.902 62.1427 38.9017H42.576Z" fill="#3F3D56"/>
<path d="M62.1427 47.9688H42.576C42.2162 47.9683 41.8712 47.8151 41.6167 47.5428C41.3623 47.2705 41.2192 46.9013 41.2188 46.5162V45.8276C41.2192 45.4425 41.3623 45.0733 41.6167 44.8009C41.8712 44.5286 42.2162 44.3754 42.576 44.375H62.1427C62.5026 44.3754 62.8475 44.5286 63.102 44.8009C63.3565 45.0733 63.4996 45.4425 63.5 45.8276V46.5162C63.4996 46.9013 63.3565 47.2705 63.102 47.5428C62.8475 47.8151 62.5026 47.9683 62.1427 47.9688ZM42.576 44.6517C42.2847 44.652 42.0055 44.776 41.7995 44.9965C41.5935 45.2169 41.4776 45.5158 41.4773 45.8276V46.5162C41.4776 46.8279 41.5935 47.1268 41.7995 47.3473C42.0055 47.5677 42.2847 47.6917 42.576 47.6921H62.1427C62.434 47.6917 62.7133 47.5677 62.9193 47.3473C63.1253 47.1268 63.2411 46.8279 63.2415 46.5162V45.8276C63.2411 45.5158 63.1253 45.2169 62.9193 44.9965C62.7133 44.776 62.434 44.652 62.1427 44.6517H42.576Z" fill="#3F3D56"/>
<path d="M60.625 13.6311V25.9701C58.5909 26.4859 56.4611 26.5451 54.3995 26.1431C52.3379 25.741 50.3994 24.8886 48.7333 23.6512C47.0671 22.4138 45.7177 20.8246 44.7887 19.0057C43.8598 17.1868 43.3762 15.1867 43.375 13.1594C43.375 12.7975 43.3901 12.4394 43.4203 12.0851H50.9675C51.3294 12.0854 51.6858 11.9999 52.0052 11.8361C52.3247 11.6723 52.5974 11.4352 52.7993 11.1458C53.0012 10.8563 53.1261 10.5234 53.163 10.1765C53.1999 9.8295 53.1476 9.47913 53.0107 9.15625H55.9806C56.5905 9.15604 57.1944 9.27163 57.7578 9.49641C58.3213 9.7212 58.8333 10.0508 59.2646 10.4663C59.6959 10.8819 60.038 11.3753 60.2714 11.9183C60.5049 12.4613 60.625 13.0433 60.625 13.6311Z" fill="#02B3BD" fill-opacity="0.17"/>
<path d="M57.75 74.4993C57.75 74.7632 57.74 75.0239 57.7183 75.2813H50.87C50.2633 75.2813 49.6625 75.1639 49.102 74.9357C48.5414 74.7075 48.0321 74.3731 47.6031 73.9514C47.1741 73.5298 46.8338 73.0292 46.6016 72.4783C46.3694 71.9274 46.25 71.3369 46.25 70.7406V64.5836C47.6855 64.4001 49.1443 64.5194 50.5292 64.9336C51.9141 65.3478 53.1932 66.0474 54.2814 66.9856C55.3696 67.9239 56.2418 69.0793 56.8399 70.375C57.438 71.6706 57.7482 73.0766 57.75 74.4993H57.75Z" fill="#02B3BD" fill-opacity="0.17"/>
<path d="M56.3595 42.1583L52 38.8347L48.6658 43.1802L53.0252 46.5038L56.3595 42.1583Z" fill="#F0F0F0"/>
<path d="M97.8701 77.4375H6.12994C6.09548 77.4375 6.06243 77.3996 6.03806 77.3322C6.01369 77.2648 6 77.1734 6 77.0781C6 76.9828 6.01369 76.8914 6.03806 76.824C6.06243 76.7566 6.09548 76.7188 6.12994 76.7188H97.8701C97.9045 76.7188 97.9376 76.7566 97.9619 76.824C97.9863 76.8914 98 76.9828 98 77.0781C98 77.1734 97.9863 77.2648 97.9619 77.3322C97.9376 77.3996 97.9045 77.4375 97.8701 77.4375Z" fill="#3F3D56"/>
<path d="M57.1386 55.1562H47.5801C47.2275 55.1559 46.8894 55.0345 46.64 54.8187C46.3907 54.603 46.2504 54.3104 46.25 54.0052V53.4323C46.2504 53.1271 46.3907 52.8345 46.64 52.6188C46.8894 52.403 47.2275 52.2816 47.5801 52.2812H57.1386C57.4913 52.2816 57.8294 52.403 58.0787 52.6188C58.3281 52.8345 58.4684 53.1271 58.4688 53.4323V54.0052C58.4684 54.3104 58.3281 54.603 58.0787 54.8187C57.8294 55.0345 57.4913 55.1559 57.1386 55.1562Z" fill="#02B3BD" fill-opacity="0.17"/>
<path d="M56.4497 54.4375H47.5503C47.2056 54.4371 46.8751 54.2839 46.6313 54.0116C46.3875 53.7393 46.2504 53.37 46.25 52.9849V52.2963C46.2504 51.9112 46.3875 51.542 46.6313 51.2697C46.8751 50.9974 47.2056 50.8442 47.5503 50.8438H56.4497C56.7944 50.8442 57.1249 50.9974 57.3687 51.2697C57.6125 51.542 57.7496 51.9112 57.75 52.2963V52.9849C57.7496 53.37 57.6125 53.7393 57.3687 54.0116C57.1249 54.2839 56.7944 54.4371 56.4497 54.4375ZM47.5503 51.1204C47.2712 51.1208 47.0037 51.2448 46.8063 51.4652C46.609 51.6857 46.498 51.9846 46.4977 52.2963V52.9849C46.498 53.2967 46.609 53.5956 46.8063 53.816C47.0037 54.0365 47.2712 54.1605 47.5503 54.1608H56.4497C56.7288 54.1605 56.9963 54.0365 57.1937 53.816C57.391 53.5956 57.502 53.2967 57.5023 52.9849V52.2963C57.502 51.9846 57.391 51.6857 57.1937 51.4652C56.9963 51.2448 56.7288 51.1208 56.4497 51.1204H47.5503Z" fill="#3F3D56"/>
</svg>
