<svg width="29" height="30" viewBox="0 0 29 30" fill="none" xmlns="http://www.w3.org/2000/svg">
<path d="M20.5413 8.94654C20.5413 12.2833 17.8364 14.9882 14.4997 14.9882C11.163 14.9882 8.45801 12.2833 8.45801 8.94654C8.45801 5.60982 11.163 2.90488 14.4997 2.90488C17.8364 2.90488 20.5413 5.60982 20.5413 8.94654Z" stroke="#345961" stroke-width="1.3" stroke-linecap="round" stroke-linejoin="round"/>
<path d="M23.2122 19.5075L18.9346 23.785C18.7655 23.9542 18.6084 24.2683 18.5722 24.4979L18.3426 26.1291C18.258 26.7212 18.6688 27.1321 19.2609 27.0475L20.8921 26.8179C21.1217 26.7816 21.448 26.6246 21.6051 26.4554L25.8826 22.1779C26.6196 21.4408 26.9701 20.5829 25.8826 19.4954C24.8071 18.42 23.9493 18.7704 23.2122 19.5075Z" stroke="#345961" stroke-width="1.3" stroke-linecap="round" stroke-linejoin="round"/>
<path d="M22.5957 20.1239C22.9582 21.4289 23.9732 22.4439 25.2782 22.8064" stroke="#345961" stroke-width="1.3" stroke-linecap="round" stroke-linejoin="round"/>
<path d="M4.12012 27.0709C4.12012 22.3946 8.77223 18.6125 14.4997 18.6125C15.7564 18.6125 16.9647 18.7938 18.0884 19.1321" stroke="#345961" stroke-width="1.3" stroke-linecap="round" stroke-linejoin="round"/>
</svg>
