<svg width="31" height="27" viewBox="0 0 31 27" fill="none" xmlns="http://www.w3.org/2000/svg">
<path d="M26.6501 12.2195L24.5938 14.4763H28.0073V24.1394H3.10522V14.4763H6.55984L4.50352 12.2195H0.843262V26.3962H30.2693V12.2195H26.6501Z" fill="#CDFFFC"/>
<path d="M23.0722 10.1679L17.1294 16.1176V0.648407H14.8675V16.2407L8.01989 9.42931L6.43652 11.0296L15.9162 20.508L24.6761 11.7682L23.0722 10.1679Z" fill="#CDFFFC"/>
<path d="M24.6755 21.9647C25.4137 21.9647 26.0121 21.3676 26.0121 20.6311C26.0121 19.8946 25.4137 19.2976 24.6755 19.2976C23.9373 19.2976 23.3389 19.8946 23.3389 20.6311C23.3389 21.3676 23.9373 21.9647 24.6755 21.9647Z" fill="#CDFFFC"/>
<path d="M26.6501 12.2195L24.5938 14.4763H28.0073V24.1394H3.10522V14.4763H6.55984L4.50352 12.2195H0.843262V26.3962H30.2693V12.2195H26.6501Z" fill="#CDFFFC"/>
<path d="M23.0722 10.1679L17.1294 16.1176V0.648407H14.8675V16.2407L8.01989 9.42931L6.43652 11.0296L15.9162 20.508L24.6761 11.7682L23.0722 10.1679Z" fill="#CDFFFC"/>
<path d="M24.6755 21.9647C25.4137 21.9647 26.0121 21.3676 26.0121 20.6311C26.0121 19.8946 25.4137 19.2976 24.6755 19.2976C23.9373 19.2976 23.3389 19.8946 23.3389 20.6311C23.3389 21.3676 23.9373 21.9647 24.6755 21.9647Z" fill="#CDFFFC"/>
</svg>
